<mxfile host="app.diagrams.net" modified="2023-03-31T07:58:58.683Z" agent="Mozilla/5.0 (Windows NT 10.0; Win64; x64) AppleWebKit/537.36 (KHTML, like Gecko) Chrome/111.0.0.0 Safari/537.36" etag="V7wR-I9BZDSgg0t37Nrx" version="21.1.2" type="github">
  <diagram name="Page-1" id="5g3XKNNo65UCQ-PQTpQ0">
    <mxGraphModel dx="880" dy="419" grid="1" gridSize="10" guides="1" tooltips="1" connect="1" arrows="1" fold="1" page="1" pageScale="1" pageWidth="850" pageHeight="1100" math="0" shadow="0">
      <root>
        <mxCell id="0" />
        <mxCell id="1" parent="0" />
        <mxCell id="KKQHdEHt6gx_uCbyuSsS-3" value="" style="rounded=0;whiteSpace=wrap;html=1;fontSize=14;fontStyle=1" vertex="1" parent="1">
          <mxGeometry x="320" y="175" width="210" height="540" as="geometry" />
        </mxCell>
        <mxCell id="KKQHdEHt6gx_uCbyuSsS-4" value="View&lt;br style=&quot;font-size: 14px;&quot;&gt;Item" style="ellipse;whiteSpace=wrap;html=1;fontSize=14;fontStyle=1" vertex="1" parent="1">
          <mxGeometry x="365" y="225" width="120" height="80" as="geometry" />
        </mxCell>
        <mxCell id="KKQHdEHt6gx_uCbyuSsS-5" value="Make&lt;br style=&quot;font-size: 14px;&quot;&gt;Purchase" style="ellipse;whiteSpace=wrap;html=1;fontSize=14;fontStyle=1" vertex="1" parent="1">
          <mxGeometry x="365" y="350" width="120" height="80" as="geometry" />
        </mxCell>
        <mxCell id="KKQHdEHt6gx_uCbyuSsS-6" value="Checkout" style="ellipse;whiteSpace=wrap;html=1;fontSize=14;fontStyle=1" vertex="1" parent="1">
          <mxGeometry x="365" y="470" width="120" height="80" as="geometry" />
        </mxCell>
        <mxCell id="KKQHdEHt6gx_uCbyuSsS-7" value="Client&lt;br style=&quot;font-size: 14px;&quot;&gt;Register" style="ellipse;whiteSpace=wrap;html=1;fontSize=14;fontStyle=1" vertex="1" parent="1">
          <mxGeometry x="365" y="590" width="120" height="80" as="geometry" />
        </mxCell>
        <mxCell id="KKQHdEHt6gx_uCbyuSsS-8" value="New&lt;br style=&quot;font-size: 14px;&quot;&gt;Customer&lt;br style=&quot;font-size: 14px;&quot;&gt;" style="shape=umlActor;verticalLabelPosition=bottom;verticalAlign=top;html=1;outlineConnect=0;fontSize=14;fontStyle=1" vertex="1" parent="1">
          <mxGeometry x="160" y="570" width="30" height="60" as="geometry" />
        </mxCell>
        <mxCell id="KKQHdEHt6gx_uCbyuSsS-9" value="Registered&lt;br style=&quot;font-size: 14px;&quot;&gt;Customer&lt;br style=&quot;font-size: 14px;&quot;&gt;&lt;br style=&quot;font-size: 14px;&quot;&gt;" style="shape=umlActor;verticalLabelPosition=bottom;verticalAlign=top;html=1;outlineConnect=0;fontSize=14;fontStyle=1" vertex="1" parent="1">
          <mxGeometry x="160" y="330" width="30" height="60" as="geometry" />
        </mxCell>
        <mxCell id="KKQHdEHt6gx_uCbyuSsS-10" value="Web&lt;br style=&quot;font-size: 14px;&quot;&gt;Customer&lt;br style=&quot;font-size: 14px;&quot;&gt;" style="shape=umlActor;verticalLabelPosition=bottom;verticalAlign=top;html=1;outlineConnect=0;fontSize=14;fontStyle=1" vertex="1" parent="1">
          <mxGeometry x="40" y="450" width="30" height="60" as="geometry" />
        </mxCell>
        <mxCell id="KKQHdEHt6gx_uCbyuSsS-17" value="" style="endArrow=classic;html=1;rounded=0;fontSize=14;fontStyle=1" edge="1" parent="1">
          <mxGeometry width="50" height="50" relative="1" as="geometry">
            <mxPoint x="150" y="380" as="sourcePoint" />
            <mxPoint x="80" y="440" as="targetPoint" />
          </mxGeometry>
        </mxCell>
        <mxCell id="KKQHdEHt6gx_uCbyuSsS-19" value="" style="endArrow=classic;html=1;rounded=0;fontSize=14;fontStyle=1" edge="1" parent="1">
          <mxGeometry width="50" height="50" relative="1" as="geometry">
            <mxPoint x="150" y="580" as="sourcePoint" />
            <mxPoint x="80" y="520" as="targetPoint" />
          </mxGeometry>
        </mxCell>
        <mxCell id="KKQHdEHt6gx_uCbyuSsS-21" value="" style="endArrow=none;html=1;rounded=0;entryX=0;entryY=0.5;entryDx=0;entryDy=0;fontSize=14;fontStyle=1" edge="1" parent="1" source="KKQHdEHt6gx_uCbyuSsS-9" target="KKQHdEHt6gx_uCbyuSsS-5">
          <mxGeometry width="50" height="50" relative="1" as="geometry">
            <mxPoint x="190" y="410" as="sourcePoint" />
            <mxPoint x="260.71067811865476" y="360" as="targetPoint" />
          </mxGeometry>
        </mxCell>
        <mxCell id="KKQHdEHt6gx_uCbyuSsS-23" value="" style="endArrow=none;html=1;rounded=0;entryX=0;entryY=0.413;entryDx=0;entryDy=0;entryPerimeter=0;fontSize=14;fontStyle=1" edge="1" parent="1" target="KKQHdEHt6gx_uCbyuSsS-4">
          <mxGeometry width="50" height="50" relative="1" as="geometry">
            <mxPoint x="190" y="360" as="sourcePoint" />
            <mxPoint x="240" y="320" as="targetPoint" />
          </mxGeometry>
        </mxCell>
        <mxCell id="KKQHdEHt6gx_uCbyuSsS-24" value="" style="endArrow=none;html=1;rounded=0;entryX=0.1;entryY=0.825;entryDx=0;entryDy=0;entryPerimeter=0;fontSize=14;fontStyle=1" edge="1" parent="1" target="KKQHdEHt6gx_uCbyuSsS-4">
          <mxGeometry width="50" height="50" relative="1" as="geometry">
            <mxPoint x="200" y="590" as="sourcePoint" />
            <mxPoint x="250" y="540" as="targetPoint" />
          </mxGeometry>
        </mxCell>
        <mxCell id="KKQHdEHt6gx_uCbyuSsS-25" value="" style="endArrow=none;html=1;rounded=0;entryX=0;entryY=0.5;entryDx=0;entryDy=0;fontSize=14;fontStyle=1" edge="1" parent="1" target="KKQHdEHt6gx_uCbyuSsS-7">
          <mxGeometry width="50" height="50" relative="1" as="geometry">
            <mxPoint x="200" y="590" as="sourcePoint" />
            <mxPoint x="270" y="570" as="targetPoint" />
          </mxGeometry>
        </mxCell>
        <mxCell id="KKQHdEHt6gx_uCbyuSsS-31" value="" style="endArrow=classic;html=1;rounded=0;dashed=1;exitX=0.5;exitY=0;exitDx=0;exitDy=0;entryX=0.5;entryY=1;entryDx=0;entryDy=0;fontSize=14;fontStyle=1" edge="1" parent="1" source="KKQHdEHt6gx_uCbyuSsS-5" target="KKQHdEHt6gx_uCbyuSsS-4">
          <mxGeometry width="50" height="50" relative="1" as="geometry">
            <mxPoint x="380" y="360" as="sourcePoint" />
            <mxPoint x="430" y="310" as="targetPoint" />
          </mxGeometry>
        </mxCell>
        <mxCell id="KKQHdEHt6gx_uCbyuSsS-32" value="" style="endArrow=classic;html=1;rounded=0;exitX=0.5;exitY=1;exitDx=0;exitDy=0;entryX=0.5;entryY=0;entryDx=0;entryDy=0;dashed=1;fontSize=14;fontStyle=1" edge="1" parent="1" source="KKQHdEHt6gx_uCbyuSsS-5" target="KKQHdEHt6gx_uCbyuSsS-6">
          <mxGeometry width="50" height="50" relative="1" as="geometry">
            <mxPoint x="400" y="490" as="sourcePoint" />
            <mxPoint x="450" y="440" as="targetPoint" />
          </mxGeometry>
        </mxCell>
        <mxCell id="KKQHdEHt6gx_uCbyuSsS-34" value="&amp;lt;&amp;lt;Service&amp;gt;&amp;gt;&lt;br style=&quot;font-size: 14px;&quot;&gt;Authentication&lt;br style=&quot;font-size: 14px;&quot;&gt;" style="shape=umlActor;verticalLabelPosition=bottom;verticalAlign=top;html=1;outlineConnect=0;fontSize=14;fontStyle=1" vertex="1" parent="1">
          <mxGeometry x="620" y="220" width="30" height="60" as="geometry" />
        </mxCell>
        <mxCell id="KKQHdEHt6gx_uCbyuSsS-35" value="Identity&lt;br style=&quot;font-size: 14px;&quot;&gt;Provider" style="shape=umlActor;verticalLabelPosition=bottom;verticalAlign=top;html=1;outlineConnect=0;fontSize=14;fontStyle=1" vertex="1" parent="1">
          <mxGeometry x="620" y="360" width="30" height="60" as="geometry" />
        </mxCell>
        <mxCell id="KKQHdEHt6gx_uCbyuSsS-36" value="Credit&lt;br style=&quot;font-size: 14px;&quot;&gt;Payment&lt;br style=&quot;font-size: 14px;&quot;&gt;Service" style="shape=umlActor;verticalLabelPosition=bottom;verticalAlign=top;html=1;outlineConnect=0;fontSize=14;fontStyle=1" vertex="1" parent="1">
          <mxGeometry x="620" y="490" width="30" height="60" as="geometry" />
        </mxCell>
        <mxCell id="KKQHdEHt6gx_uCbyuSsS-37" value="PayPal" style="shape=umlActor;verticalLabelPosition=bottom;verticalAlign=top;html=1;outlineConnect=0;fontSize=14;fontStyle=1" vertex="1" parent="1">
          <mxGeometry x="620" y="610" width="30" height="60" as="geometry" />
        </mxCell>
        <mxCell id="KKQHdEHt6gx_uCbyuSsS-44" value="" style="endArrow=none;html=1;rounded=0;exitX=1;exitY=0.5;exitDx=0;exitDy=0;fontSize=14;fontStyle=1" edge="1" parent="1" source="KKQHdEHt6gx_uCbyuSsS-4">
          <mxGeometry width="50" height="50" relative="1" as="geometry">
            <mxPoint x="500" y="340" as="sourcePoint" />
            <mxPoint x="610" y="250" as="targetPoint" />
          </mxGeometry>
        </mxCell>
        <mxCell id="KKQHdEHt6gx_uCbyuSsS-45" value="" style="endArrow=none;html=1;rounded=0;exitX=0.958;exitY=0.375;exitDx=0;exitDy=0;exitPerimeter=0;fontSize=14;fontStyle=1" edge="1" parent="1" source="KKQHdEHt6gx_uCbyuSsS-6">
          <mxGeometry width="50" height="50" relative="1" as="geometry">
            <mxPoint x="530" y="350" as="sourcePoint" />
            <mxPoint x="610" y="250" as="targetPoint" />
          </mxGeometry>
        </mxCell>
        <mxCell id="KKQHdEHt6gx_uCbyuSsS-46" value="" style="endArrow=none;html=1;rounded=0;exitX=0.958;exitY=0.375;exitDx=0;exitDy=0;exitPerimeter=0;fontSize=14;fontStyle=1" edge="1" parent="1" source="KKQHdEHt6gx_uCbyuSsS-7">
          <mxGeometry width="50" height="50" relative="1" as="geometry">
            <mxPoint x="530" y="500" as="sourcePoint" />
            <mxPoint x="610" y="250" as="targetPoint" />
          </mxGeometry>
        </mxCell>
        <mxCell id="KKQHdEHt6gx_uCbyuSsS-47" value="" style="endArrow=none;html=1;rounded=0;exitX=1;exitY=1;exitDx=0;exitDy=0;fontSize=14;fontStyle=1" edge="1" parent="1" source="KKQHdEHt6gx_uCbyuSsS-4">
          <mxGeometry width="50" height="50" relative="1" as="geometry">
            <mxPoint x="380" y="480" as="sourcePoint" />
            <mxPoint x="610" y="400" as="targetPoint" />
          </mxGeometry>
        </mxCell>
        <mxCell id="KKQHdEHt6gx_uCbyuSsS-49" value="" style="endArrow=none;html=1;rounded=0;exitX=1;exitY=0.5;exitDx=0;exitDy=0;fontSize=14;fontStyle=1" edge="1" parent="1" source="KKQHdEHt6gx_uCbyuSsS-6">
          <mxGeometry width="50" height="50" relative="1" as="geometry">
            <mxPoint x="560" y="450" as="sourcePoint" />
            <mxPoint x="610" y="400" as="targetPoint" />
          </mxGeometry>
        </mxCell>
        <mxCell id="KKQHdEHt6gx_uCbyuSsS-50" value="" style="endArrow=none;html=1;rounded=0;exitX=0.967;exitY=0.675;exitDx=0;exitDy=0;exitPerimeter=0;fontSize=14;fontStyle=1" edge="1" parent="1" source="KKQHdEHt6gx_uCbyuSsS-6">
          <mxGeometry width="50" height="50" relative="1" as="geometry">
            <mxPoint x="540" y="570" as="sourcePoint" />
            <mxPoint x="610" y="530" as="targetPoint" />
          </mxGeometry>
        </mxCell>
        <mxCell id="KKQHdEHt6gx_uCbyuSsS-51" value="" style="endArrow=none;html=1;rounded=0;exitX=1;exitY=1;exitDx=0;exitDy=0;fontSize=14;fontStyle=1" edge="1" parent="1" source="KKQHdEHt6gx_uCbyuSsS-6">
          <mxGeometry width="50" height="50" relative="1" as="geometry">
            <mxPoint x="530" y="600" as="sourcePoint" />
            <mxPoint x="600" y="640" as="targetPoint" />
          </mxGeometry>
        </mxCell>
        <mxCell id="KKQHdEHt6gx_uCbyuSsS-54" value="&amp;lt;&amp;lt;include&amp;gt;&amp;gt;" style="text;html=1;align=center;verticalAlign=middle;resizable=0;points=[];autosize=1;strokeColor=none;fillColor=none;fontSize=13;fontStyle=1" vertex="1" parent="1">
          <mxGeometry x="415" y="320" width="100" height="30" as="geometry" />
        </mxCell>
        <mxCell id="KKQHdEHt6gx_uCbyuSsS-55" value="&amp;lt;&amp;lt;include&amp;gt;&amp;gt;" style="text;html=1;align=center;verticalAlign=middle;resizable=0;points=[];autosize=1;strokeColor=none;fillColor=none;fontSize=13;fontStyle=1" vertex="1" parent="1">
          <mxGeometry x="415" y="430" width="100" height="30" as="geometry" />
        </mxCell>
        <mxCell id="KKQHdEHt6gx_uCbyuSsS-56" value="&amp;lt;&amp;lt;Subsystem&amp;gt;&amp;gt;&lt;br style=&quot;font-size: 14px;&quot;&gt;Online Shopping" style="text;html=1;align=center;verticalAlign=middle;resizable=0;points=[];autosize=1;strokeColor=none;fillColor=none;fontSize=14;fontStyle=1" vertex="1" parent="1">
          <mxGeometry x="315" y="175" width="140" height="50" as="geometry" />
        </mxCell>
      </root>
    </mxGraphModel>
  </diagram>
</mxfile>
